<svg xmlns="http://www.w3.org/2000/svg" xmlns:xlink="http://www.w3.org/1999/xlink" width="154px" height="30px" viewBox="0 0 154 30"><title>Logo</title><g id="Design" stroke="none" stroke-width="1" fill="none" fill-rule="evenodd"><g id="Logo"><g id="Group-19" fill="#5DD89E"><path d="M16.2858863,19.6433112 L10.3572407,13.6276628 L18.6410488,11.524384 L16.2858863,19.6433112 Z M29.1579304,20.0872771 L20.5027145,11.0517917 L28.2120613,9.09445674 C28.2891702,9.07477604 28.3356926,8.99682003 28.3159013,8.92014198 L27.0983519,4.19677432 C27.0785606,4.12035187 27.0001666,4.07408945 26.9230577,4.09377015 L17.1988555,6.57277139 C16.9446532,6.63743654 16.7156398,6.40331291 16.7878651,6.15257569 L18.1205638,1.5248 C18.1424113,1.44888874 18.0982022,1.36939916 18.0216074,1.34767371 L13.3076839,0.00555230904 C13.2313461,-0.0161731374 13.1514099,0.0277889425 13.1295624,0.103700208 L9.48899461,12.7468877 L3.74541038,6.91910056 C3.68963495,6.8626144 3.59838943,6.86184762 3.54158588,6.91731141 L0.0431555219,10.333574 C-0.0136480274,10.3890378 -0.0144191163,10.4795179 0.0410992849,10.536004 L7.07471524,17.6586277 C7.25874846,17.8449554 7.16981621,18.1593354 6.91535687,18.2229782 L2.22096762,19.3974302 C2.14385873,19.4165998 2.09682231,19.4945558 2.11635656,19.5712338 L3.31282951,24.2999689 C3.33210673,24.376647 3.41050077,24.423165 3.48760966,24.4037399 L15.7983011,21.324094 L13.725357,28.4702323 C13.7032525,28.5463991 13.7474616,28.6256331 13.8240564,28.6476142 L18.5364378,29.9943362 C18.6130326,30.0163173 18.6927118,29.9723552 18.7145593,29.8964439 L21.487652,20.3022312 C21.5601344,20.0512384 21.8791082,19.973538 22.060057,20.1624215 L25.398872,23.6479499 C25.4536193,23.7052029 25.5448648,23.7075032 25.6024394,23.6528062 L29.1527898,20.2897071 C29.2103644,20.2352657 29.2126777,20.14453 29.1579304,20.0872771 L29.1579304,20.0872771 Z" id="Fill-1"></path></g><path d="M47.8590725,10.8733363 C47.8590725,12.8253038 46.3549351,14.1364984 44.116464,14.1364984 L40.9195294,14.1364984 L40.9195294,7.55317689 L44.030102,7.55317689 C46.4276745,7.55317689 47.8590725,8.77286901 47.8590725,10.8160834 L47.8590725,10.8733363 Z M44.4048512,4.02215285 L36.9363411,4.02215285 L36.9363411,24.4611973 L40.9195294,24.4611973 L40.9195294,17.6102695 L43.9725274,17.6102695 C48.7882346,17.6102695 51.8998354,14.9321609 51.8998354,10.7874569 L51.8998354,10.7302039 C51.8998354,6.65502137 48.9578742,4.02215285 44.4048512,4.02215285 L44.4048512,4.02215285 Z M94.793969,17.0311968 C94.793969,19.6193365 93.1109389,21.497693 90.7922746,21.497693 C88.5270724,21.497693 86.8191105,19.5774192 86.8191105,17.0311968 L86.8191105,16.9739439 C86.8191105,14.427466 88.5270724,12.5074477 90.7922746,12.5074477 C93.0736696,12.5074477 94.793969,14.427466 94.793969,16.9739439 L94.793969,17.0311968 Z M91.9160082,9.26294397 C90.0034506,9.26294397 88.489032,10.0483828 87.2866474,11.6642448 L86.8769422,12.2147932 L86.8769422,11.1760612 C86.8769422,10.2776501 86.1446647,9.54946427 85.2412056,9.54946427 L82.9513285,9.54946427 L82.9513285,29.9435243 L86.8769422,29.9435243 L86.8769422,22.0541201 L87.2781654,22.5308019 C88.5484059,24.0395703 90.0222138,24.7421968 91.9160082,24.7421968 C95.1926219,24.7421968 98.7193256,22.3291387 98.7193256,17.0311968 L98.7193256,16.9739439 C98.7193256,13.1418307 96.3824121,9.26294397 91.9160082,9.26294397 L91.9160082,9.26294397 Z M121.339296,3.99084265 L119.049419,3.99084265 L119.049419,24.455702 L122.974775,24.455702 L122.974775,5.61718401 C122.974775,4.7190285 122.242498,3.99084265 121.339296,3.99084265 M133.085164,21.2398759 C131.229153,21.2398759 130.207204,20.0503438 130.207204,17.8908344 L130.207204,11.1758823 C130.207204,10.2777268 129.474926,9.54954095 128.571467,9.54954095 L126.28159,9.54954095 L126.28159,19.266183 C126.28159,22.6952252 128.157135,24.7422735 131.298551,24.7422735 C133.488444,24.7422735 134.723728,23.5407285 135.643123,22.365254 L136.049744,21.8456325 L136.049744,24.4557532 L139.974844,24.4557532 L139.974844,11.1758823 C139.974844,10.2777268 139.242566,9.54954095 138.339364,9.54954095 L136.049744,9.54954095 L136.049744,17.8908344 C136.049744,20.0191614 134.969192,21.2398759 133.085164,21.2398759 M149.487331,15.6123974 L149.479106,15.6093303 C149.321033,15.5554 149.159104,15.500703 149.00026,15.447284 C147.430837,14.9187167 146.19144,14.5010769 146.19144,13.5643268 L146.19144,13.5068182 C146.19144,12.8852149 146.674912,12.2209274 148.032029,12.2209274 C149.078654,12.2209274 150.464043,12.6638709 151.942478,13.4697572 L152.803784,10.5005276 C151.332803,9.73885904 149.672135,9.32019691 148.118391,9.32019691 C145.420608,9.32019691 142.69815,10.7566323 142.69815,13.965353 L142.69815,14.0228615 C142.69815,16.7462101 144.835351,17.7450695 147.145277,18.4188139 C147.345503,18.4796451 147.540331,18.5368981 147.730533,18.5928731 C149.281707,19.0483407 150.50671,19.4082163 150.50671,20.4121875 L150.50671,20.4694404 C150.50671,20.9819054 150.2376,21.8417219 148.435565,21.8417219 C147.14322,21.8417219 144.992396,21.3302793 143.249478,20.2105242 L143.249478,23.6873625 C144.789857,24.4158039 146.899556,24.7421968 148.320159,24.7421968 C151.876678,24.7421968 154,22.9734898 154,20.0111613 L154,19.9539084 C154,17.3279409 151.670797,16.3359826 149.487331,15.6123974 M76.3602919,17.088552 C76.3602919,19.6434645 74.5803617,21.4977953 72.1280419,21.4977953 C69.7222446,21.4977953 67.8379603,19.5358597 67.8379603,17.0312991 L67.8379603,16.9737905 C67.8379603,14.418878 69.6178905,12.5648029 72.0702103,12.5648029 C74.4760077,12.5648029 76.3602919,14.5264829 76.3602919,17.0312991 L76.3602919,17.088552 Z M72.1280419,9.26304621 C67.5534285,9.26304621 63.9701784,12.6752193 63.9701784,17.0312991 L63.9701784,17.088552 C63.9701784,19.1775176 64.7875326,21.116961 66.2713647,22.5495625 C67.774217,24.0003111 69.8335384,24.799552 72.0702103,24.799552 C76.6448237,24.799552 80.2280739,21.3871233 80.2280739,17.0312991 L80.2280739,16.9737905 C80.2280739,14.884825 79.4107196,12.9453816 77.9268875,11.5127801 C76.4242923,10.0617759 74.3647138,9.26304621 72.1280419,9.26304621 L72.1280419,9.26304621 Z M62.3658508,13.500045 L62.4971929,13.1115429 L63.5047491,9.63751622 C61.5734284,9.81208658 59.3205637,10.2404613 58.6217001,11.8990074 L58.1850067,12.9356946 L58.1850067,11.1759334 C58.1850067,10.2777779 57.4527293,9.54959206 56.5495272,9.54959206 L54.2596502,9.54959206 L54.2596502,24.4555487 L58.1850067,24.4555487 L58.1850067,19.0083403 C58.1850067,16.7660186 59.2843225,14.1489969 62.3658508,13.500045 M104.89346,16.0251809 L104.939725,15.760386 C105.317816,13.5980651 106.651029,12.3070624 108.505755,12.3070624 C110.396979,12.3070624 111.69832,13.6013878 111.986964,15.7695874 L112.020892,16.0251809 L104.89346,16.0251809 Z M108.505755,9.26294397 C104.281987,9.26294397 101.097132,12.6025285 101.097132,17.0311968 L101.097132,17.0887054 C101.097132,19.2847646 101.887756,21.262547 103.323266,22.6575763 C104.744126,24.0388035 106.738162,24.7994497 108.938078,24.7994497 C111.034669,24.7994497 113.247951,24.2003386 114.4673,23.3052502 L114.4673,20.3526342 C113.509865,21.0082315 111.245691,22.2928444 108.713949,21.8537348 C105.361254,21.2722596 104.89346,18.2871832 104.89346,18.2871832 L104.945637,18.2958734 L105.219888,18.2953622 L115.757846,18.2953622 L115.759645,18.2710809 C115.78175,17.9837938 115.798971,17.7621942 115.798971,17.4324786 L115.798971,17.3749701 C115.798971,13.6328258 113.888983,9.26294397 108.505755,9.26294397 L108.505755,9.26294397 Z" id="Combined-Shape" fill="#181E4B"></path></g></g></svg>